<svg width="18" height="19" viewBox="0 0 18 19" fill="none" xmlns="http://www.w3.org/2000/svg">
<path d="M10.6 6.07384H14.6M11.4 9.62939H14.6M13 13.185H14.6M9 13.4783C8.94616 12.8543 8.6975 12.271 8.29713 11.8294C7.89677 11.3878 7.36994 11.1158 6.808 11.0605C6.40365 11.0161 5.99635 11.0161 5.592 11.0605C5.03061 11.1174 4.50463 11.39 4.10455 11.8313C3.70448 12.2725 3.45534 12.8549 3.4 13.4783M13 17.6294H5C1.8 17.6294 1 16.7405 1 13.185V6.07384C1 2.51828 1.8 1.62939 5 1.62939H13C16.2 1.62939 17 2.51828 17 6.07384V13.185C17 16.7405 16.2 17.6294 13 17.6294ZM6.2 8.99828C6.58403 8.99828 6.95234 8.82878 7.22389 8.52705C7.49544 8.22533 7.648 7.8161 7.648 7.38939C7.648 6.96269 7.49544 6.55346 7.22389 6.25174C6.95234 5.95001 6.58403 5.78051 6.2 5.78051C5.81597 5.78051 5.44766 5.95001 5.17611 6.25174C4.90456 6.55346 4.752 6.96269 4.752 7.38939C4.752 7.8161 4.90456 8.22533 5.17611 8.52705C5.44766 8.82878 5.81597 8.99828 6.2 8.99828Z" stroke="black" stroke-width="1.5" stroke-linecap="round" stroke-linejoin="round"/>
</svg>
