<svg width="18" height="19" viewBox="0 0 18 19" fill="none" xmlns="http://www.w3.org/2000/svg">
<path d="M6.60521 12.025L11.4124 7.21778M11.0078 11.6244H11.015M7.0018 7.61838H7.00821M2.59039 11.7526L1.37256 10.5348C0.875814 10.038 0.875814 9.22078 1.37256 8.72404L2.59039 7.50621C2.7987 7.2979 2.96695 6.88928 2.96695 6.60085V4.87827C2.96695 4.17321 3.54382 3.59634 4.24887 3.59634H5.97146C6.25989 3.59634 6.6685 3.42809 6.87681 3.21978L8.09464 2.00195C8.59139 1.50521 9.40861 1.50521 9.90536 2.00195L11.1232 3.21978C11.3315 3.42809 11.7401 3.59634 12.0285 3.59634H13.7511C14.4562 3.59634 15.033 4.17321 15.033 4.87827V6.60085C15.033 6.88928 15.2013 7.2979 15.4096 7.50621L16.6274 8.72404C17.1242 9.22078 17.1242 10.038 16.6274 10.5348L15.4096 11.7526C15.2013 11.9609 15.033 12.3695 15.033 12.6579V14.3805C15.033 15.0856 14.4562 15.6624 13.7511 15.6624H12.0285C11.7401 15.6624 11.3315 15.8307 11.1232 16.039L9.90536 17.2568C9.40861 17.7536 8.59139 17.7536 8.09464 17.2568L6.87681 16.039C6.6685 15.8307 6.25989 15.6624 5.97146 15.6624H4.24887C3.54382 15.6624 2.96695 15.0856 2.96695 14.3805V12.6579C2.96695 12.3615 2.7987 11.9529 2.59039 11.7526Z" stroke="black" stroke-width="1.5" stroke-linecap="round" stroke-linejoin="round"/>
</svg>
