<svg width="18" height="19" viewBox="0 0 18 19" fill="none" xmlns="http://www.w3.org/2000/svg">
<path d="M1.64899 5.98085L8.99584 10.0683L16.2928 6.00485M8.99584 17.3154V10.0603M13.156 10.6203V7.69264L5.26001 3.30918M7.27353 2.01335L2.83047 4.38905C1.82371 4.92498 1 6.26881 1 7.37268V11.8921C1 12.996 1.82371 14.3398 2.83047 14.8757L7.27353 17.2514C8.22205 17.7554 9.77795 17.7554 10.7265 17.2514L15.1695 14.8757C16.1763 14.3398 17 12.996 17 11.8921V7.37268C17 6.26881 16.1763 4.92498 15.1695 4.38905L10.7265 2.01335C9.76963 1.50141 8.22205 1.50141 7.27353 2.01335Z" stroke="black" stroke-width="1.5" stroke-linecap="round" stroke-linejoin="round"/>
</svg>
